<svg id="Layer_1" data-name="Layer 1" xmlns="http://www.w3.org/2000/svg" viewBox="0 0 48 48"><defs><style>.cls-1,.cls-2,.cls-3,.cls-4{fill:none;}.cls-1,.cls-2,.cls-3{stroke:#4b286d;}.cls-1,.cls-3{stroke-miterlimit:10;}.cls-2,.cls-3{stroke-linecap:round;}.cls-2{stroke-linejoin:round;}</style></defs><circle class="cls-1" cx="24.62" cy="18.6" r="9.36"/><path class="cls-1" d="M20.08,30.6h9.06A13.69,13.69,0,0,1,42.84,44.3v0a.35.35,0,0,1-.35.35H6.74a.35.35,0,0,1-.35-.35v0A13.69,13.69,0,0,1,20.08,30.6Z"/><path class="cls-2" d="M34,14.38v8.16a4.08,4.08,0,0,0,0-8.16Z"/><path class="cls-2" d="M15.24,14.38v8.16a4.08,4.08,0,0,1,0-8.16Z"/><path class="cls-3" d="M34.64,8.39C36.85,10.81,38,15,38,18.51"/><path class="cls-3" d="M11.23,18.39c0-3.54,1.16-7.6,3.38-10"/><path class="cls-1" d="M37,21.16v2.78a1,1,0,0,1-1,1H27.11"/><rect class="cls-1" x="22.11" y="23.41" width="4.83" height="2.73" rx="1.37"/><path class="cls-1" d="M33.77,8.73a1.29,1.29,0,0,1-.86-.33,12.29,12.29,0,0,0-16.59,0,1.27,1.27,0,0,1-1.71-1.88,14.85,14.85,0,0,1,20,0,1.27,1.27,0,0,1-.86,2.21Z"/><rect class="cls-4" width="48" height="48"/></svg>